<svg xmlns="http://www.w3.org/2000/svg" width="312" height="312" viewBox="0 0 312 312">
    <g fill="none" fill-rule="evenodd">
        <g>
            <g>
                <path fill="#CDCBCB" d="M4.54 118.715c-11.483 46.658-1.31 97.971 31.96 137.596 33.27 39.629 82.066 58.544 130.03 55.34 10.07-3.931 20.892-9.7 32.614-17.685 15.496-11.358 39.296-32.228 19.069-49.253-21.028-15.772-65.522 9.644-90.17 17.192-14.31 4.387-28.758 7.735-43.56 8.99-21.27 1.424-35.627-5.555-43.935-17.977-10.8-10.334-15.185-25.677-10.09-46.368 3.81-14.35 9.611-27.99 16.42-41.318 11.713-22.949 44.478-62.335 32.586-85.77-13.26-22.861-37.956-3.058-51.838 10.22-9.903 10.153-17.466 19.804-23.086 29.033" transform="translate(-794.000000, -139.000000) translate(794.000000, 139.000000)"/>
                <path fill="#D01329" d="M256.33 275.954c65.934-55.475 74.53-154.035 19.202-220.14C220.2-10.291 121.896-18.91 55.963 36.566 46.434 44.58 38.113 53.501 31 63.09c36.365-31.11 97.23-56.533 110.568-4.191 7.04 48.204-52.252 111.734-61.879 161.691 50.742-.837 123.435-48.356 169.563-33.037 49.096 22.252 13.561 77.94-23.305 108.448 10.648-5.359 20.855-12.03 30.384-20.046" transform="translate(-794.000000, -139.000000) translate(794.000000, 139.000000)"/>
            </g>
        </g>
    </g>
</svg>
